<?xml version="1.0" encoding="utf-8" ?>
<svg baseProfile="full" height="150" version="1.1" width="240" xmlns="http://www.w3.org/2000/svg" xmlns:ev="http://www.w3.org/2001/xml-events" xmlns:xlink="http://www.w3.org/1999/xlink"><defs><pattern height="10" id="striped" patternTransform="translate(0,0),scale(10,10)" patternUnits="userSpaceOnUse" width="5"><rect height="10" style="fill:red;stroke:none" width="5" x="0" y="5" /></pattern><pattern height="10" id="striped" patternTransform="translate(0,0),scale(10,10)" patternUnits="userSpaceOnUse" width="5"><rect height="10" style="fill:red;stroke:none" width="5" x="0" y="5" /></pattern><pattern height="10" id="striped" patternTransform="translate(0,0),scale(10,10)" patternUnits="userSpaceOnUse" width="5"><rect height="10" style="fill:red;stroke:none" width="5" x="0" y="5" /></pattern></defs><g><rect fill="#FFFFFF" height="150" stroke="#000000" stroke-width="1px" width="240" x="0" y="0" /><path d="M45,40 m-30,0 a30,30 0 0 1 60,0 l0,70 a30,30 0 0 1 -60,0 z" fill="none" stroke="red" stroke-width="5px" style="fill:url(#striped);fill-opacity:1.0" /><path d="M120,40 m-30,0 a30,30 0 0 1 60,0 l0,70 a30,30 0 0 1 -60,0 z" fill="none" stroke="red" stroke-width="5px" style="fill:url(#striped);fill-opacity:1.0" /><path d="M195,40 m-30,0 a30,30 0 0 1 60,0 l0,70 a30,30 0 0 1 -60,0 z" fill="none" stroke="red" stroke-width="5px" style="fill:url(#striped);fill-opacity:1.0" /></g></svg>