<?xml version="1.0" encoding="utf-8" ?>
<svg baseProfile="full" height="150" version="1.1" width="240" xmlns="http://www.w3.org/2000/svg" xmlns:ev="http://www.w3.org/2001/xml-events" xmlns:xlink="http://www.w3.org/1999/xlink"><defs /><g><rect fill="#FFFFFF" height="150" stroke="#000000" stroke-width="1px" width="240" x="0" y="0" /><path d="M82,15.123793 m-30,0 c7.38341,-6.3151305 17.83557,-5.3618205 26.83644,-4.50238 13.79545,2.23562 25.40211,14.27496 26.54194,28.29842 2.13183,14.90538 -4.36105,29.00712 -8.42939,42.97679 -3.12911,13.84549 2.14741,28.097767 9.58127,39.660817 3.12892,4.91872 2.45981,12.00942 -2.49927,15.45313 -5.32638,3.6523 -12.19912,2.93169 -18.32546,2.93181 -8.22414,-1.13465 -15.34349,-6.32239 -21.07915,-12.03672 -7.90619,-8.991 -11.69782,-21.1497 -10.99077,-33.042047 -0.0535,-9.2477 2.31273,-18.25521 5.5574,-26.84247 2.56472,-7.95926 1.88928,-16.67933 -1.56434,-24.26242 -2.28374,-5.89455 -6.34763,-10.92456 -8.68227,-16.75901 -1.1634,-4.09779 -0.44767,-9.09672 3.0536,-11.87592 z" fill="none" stroke="red" stroke-width="5px" /><path d="M157,15.123793 m-30,0 c7.38341,-6.3151305 17.83557,-5.3618205 26.83644,-4.50238 13.79545,2.23562 25.40211,14.27496 26.54194,28.29842 2.13183,14.90538 -4.36105,29.00712 -8.42939,42.97679 -3.12911,13.84549 2.14741,28.097767 9.58127,39.660817 3.12892,4.91872 2.45981,12.00942 -2.49927,15.45313 -5.32638,3.6523 -12.19912,2.93169 -18.32546,2.93181 -8.22414,-1.13465 -15.34349,-6.32239 -21.07915,-12.03672 -7.90619,-8.991 -11.69782,-21.1497 -10.99077,-33.042047 -0.0535,-9.2477 2.31273,-18.25521 5.5574,-26.84247 2.56472,-7.95926 1.88928,-16.67933 -1.56434,-24.26242 -2.28374,-5.89455 -6.34763,-10.92456 -8.68227,-16.75901 -1.1634,-4.09779 -0.44767,-9.09672 3.0536,-11.87592 z" fill="none" stroke="red" stroke-width="5px" /></g></svg>